<svg width="55" height="55" viewBox="0 0 55 55" fill="none" xmlns="http://www.w3.org/2000/svg"><path d="M27.624 40.74a.914.914 0 0 1-.644-.265L15.277 28.772a.912.912 0 0 1-.036-1.25l8.77-9.825c6.131-7.172 16.115-11.814 24.82-11.666a.91.91 0 0 1 .888.888c.203 8.711-4.492 18.689-11.682 24.832L28.23 40.51a.902.902 0 0 1-.605.231zM17.173 28.093L27.659 38.58l9.182-8.197C43.407 24.77 47.767 15.827 47.902 7.85c-7.977.133-16.919 4.494-22.52 11.045l-8.21 9.198z" fill="#fff"/><path d="M31.111 47.405a.846.846 0 0 1-.26-.04c-.328-.11-.598-.36-.645-.703l-1.249-8.716a.912.912 0 0 1 .772-1.03.906.906 0 0 1 1.03.771l.976 6.81c3.19-3.815 4.964-8.65 4.964-13.581a.91.91 0 0 1 1.82 0c0 6.032-2.443 11.937-6.703 16.195a1.023 1.023 0 0 1-.705.294zM17.938 26.804a.784.784 0 0 1-.13-.009l-8.716-1.249a.909.909 0 0 1-.51-1.55c4.321-4.32 10.224-6.764 16.256-6.764a.91.91 0 0 1 0 1.821 21.25 21.25 0 0 0-13.59 4.962l6.819.977a.912.912 0 0 1-.13 1.812zm19.285-3.725a4.538 4.538 0 0 1-3.219-1.331 4.56 4.56 0 0 1 0-6.439 4.557 4.557 0 0 1 6.439 0 4.56 4.56 0 0 1 0 6.439 4.537 4.537 0 0 1-3.22 1.33zm0-7.28c-.699 0-1.4.266-1.931.798a2.738 2.738 0 0 0 0 3.863 2.74 2.74 0 0 0 3.863 0 2.739 2.739 0 0 0 0-3.863 2.736 2.736 0 0 0-1.932-.798zm2.575 5.306h.018-.018zM6.938 49.724a.91.91 0 0 1-.872-1.17c.299-.997 2.973-9.798 4.922-11.747a5.632 5.632 0 0 1 7.958 0 5.634 5.634 0 0 1 0 7.959c-1.948 1.948-10.75 4.623-11.746 4.922a1 1 0 0 1-.262.036zm8.03-12.744a3.8 3.8 0 0 0-2.693 1.113c-1.05 1.052-2.799 5.752-3.953 9.337 3.583-1.155 8.285-2.902 9.335-3.953a3.812 3.812 0 0 0 0-5.384 3.793 3.793 0 0 0-2.69-1.113z" fill="#fff"/></svg>