<svg width="55" height="55" viewBox="0 0 55 55" fill="none" xmlns="http://www.w3.org/2000/svg"><path d="M22.022 27.196a.813.813 0 0 0-1.091-.358l-3.834 1.937a.812.812 0 1 0 .734 1.45l3.833-1.937a.813.813 0 0 0 .358-1.092z" fill="#fff"/><path d="M26.56 20.41a.81.81 0 0 0-1.091-.359l-3.73 1.884a.813.813 0 0 0-.358 1.092l.186.367L4.298 32.12a.813.813 0 0 0-.358 1.091l.545 1.08-4.039 2.038a.812.812 0 0 0-.358 1.091l1.882 3.73a.81.81 0 0 0 1.091.358L7.1 39.469l.542 1.073a.81.81 0 0 0 1.092.358l4.324-2.184c.25.294.545.546.874.746l-4.991 14.46a.812.812 0 0 0 1.536.532l4.996-14.476a3.357 3.357 0 0 0 .662-.001l4.996 14.477a.812.812 0 1 0 1.536-.532L17.676 39.46a3.57 3.57 0 0 0 1.624-3.898l6.706-3.388.185.371a.812.812 0 0 0 1.092.359l3.729-1.885a.812.812 0 0 0 .358-1.091l-4.81-9.517zM3.054 39.69l-1.151-2.277 3.314-1.673 1.15 2.277-3.313 1.673zm12.751-1.324a1.973 1.973 0 1 1 0-3.946 1.973 1.973 0 0 1 0 3.946zm2.774-4.261a3.591 3.591 0 0 0-6.26 3.164l-3.59 1.813-2.972-5.879 16.543-8.36 2.971 5.878-6.692 3.384zm8.697-3.02l-4.078-8.067 2.278-1.152 4.079 8.067-2.28 1.152zm4.151-26.606l1.087-1.06a.812.812 0 0 0-.45-1.385l-1.503-.218-.67-1.363a.812.812 0 0 0-1.458 0l-.672 1.36-1.501.218a.813.813 0 0 0-.45 1.386l1.086 1.062-.256 1.495a.811.811 0 0 0 1.178.856l1.343-.706 1.344.706a.812.812 0 0 0 1.178-.856l-.256-1.495zm-1.439-.865a.81.81 0 0 0-.232.719l.05.294-.264-.14a.81.81 0 0 0-.756 0l-.265.14.05-.294a.81.81 0 0 0-.231-.72l-.214-.208.295-.043a.813.813 0 0 0 .612-.445l.132-.267.132.267a.811.811 0 0 0 .612.445l.296.043-.217.209zm8.888 9.17l-1.501-.218-.672-1.361a.812.812 0 0 0-1.457 0l-.672 1.36-1.5.219a.813.813 0 0 0-.451 1.385l1.087 1.06-.257 1.495a.812.812 0 0 0 1.18.856l1.342-.706 1.344.706a.813.813 0 0 0 1.179-.856l-.257-1.496 1.087-1.059a.812.812 0 0 0-.45-1.385h-.002zM36.8 14.362a.814.814 0 0 0-.232.719l.05.294-.264-.14a.812.812 0 0 0-.756 0l-.264.14.05-.294a.812.812 0 0 0-.232-.72l-.214-.208.295-.043a.812.812 0 0 0 .612-.444l.132-.268.133.268a.812.812 0 0 0 .611.444l.296.043-.217.209zm-21.166-1.241l-.256 1.496a.811.811 0 0 0 1.179.856l1.343-.706 1.343.706a.81.81 0 0 0 1.179-.856l-.257-1.496 1.087-1.059a.813.813 0 0 0-.45-1.385l-1.502-.218-.672-1.36a.812.812 0 0 0-1.457 0l-.67 1.36-1.501.218a.813.813 0 0 0-.45 1.385l1.084 1.06zm1.522-1.116a.814.814 0 0 0 .612-.444l.131-.268.133.268a.813.813 0 0 0 .612.444l.295.043-.214.209a.811.811 0 0 0-.232.719l.05.294-.264-.14a.81.81 0 0 0-.756 0l-.264.14.05-.294a.81.81 0 0 0-.232-.72l-.214-.208.293-.043zm30.268 18.589l-1.502-.218-.672-1.36a.812.812 0 0 0-1.457 0l-.672 1.36-1.502.219a.811.811 0 0 0-.45 1.385l1.087 1.06L42 34.535a.811.811 0 0 0 1.179.854l1.343-.706 1.344.706a.813.813 0 0 0 1.178-.856l-.256-1.495 1.087-1.06a.814.814 0 0 0-.45-1.385v.001zm-2.077 1.578a.812.812 0 0 0-.232.72l.05.294-.264-.14a.809.809 0 0 0-.757 0l-.264.14.05-.295a.813.813 0 0 0-.232-.719l-.214-.208.296-.043a.814.814 0 0 0 .611-.445l.13-.264.133.268a.813.813 0 0 0 .612.445l.295.042-.214.205zM46.564 0a8.49 8.49 0 0 0-6.8 3.434.812.812 0 0 0 .817 1.277 6.825 6.825 0 0 1 8.26 6.87 6.823 6.823 0 0 1-1.321 3.838.812.812 0 0 0 .825 1.274 8.444 8.444 0 0 0 3.86-14.526A8.445 8.445 0 0 0 46.563 0zm3.358 14.375a8.448 8.448 0 0 0-7.41-11.423 6.825 6.825 0 0 1 10.871 5.49 6.858 6.858 0 0 1-3.46 5.933z" fill="#fff"/></svg>