<svg width="55" height="55" viewBox="0 0 55 55" fill="none" xmlns="http://www.w3.org/2000/svg"><path d="M49.766 7.561h-12.27a.767.767 0 0 0-.767.767v2.946a7.652 7.652 0 0 0-1.513 13.159H23.692a.763.763 0 0 0-.546.23 2.425 2.425 0 0 0-.22-.09V8.328a.767.767 0 0 0-.767-.767H10.656v-.767a.767.767 0 0 0-.767-.767H5.287a.767.767 0 0 0-.766.767v10.737c0 .423.343.767.766.767h3.835v.766c0 .424.343.767.767.767h11.503v4.743a2.287 2.287 0 0 0 0 4.319v20.08h1.534v-20.08c.076-.027.148-.056.22-.09.143.148.34.23.546.23h9.97v6.903c0 .423.343.767.767.767v7.668h-.767a.767.767 0 0 0-.767.767v3.068c0 .423.343.767.767.767h12.27a.767.767 0 0 0 .767-.767v-3.068a.767.767 0 0 0-.767-.767h-.767v-5.2a2.288 2.288 0 0 0 3.604-2.689.762.762 0 0 0 .23-.546v-9.97h.767a.767.767 0 0 0 .767-.767V8.328a.767.767 0 0 0-.767-.767zM9.122 16.764H6.054V7.56h3.068v9.203zm1.534 1.534V9.095h10.736v9.202H10.656zM22.159 27.5a.767.767 0 1 1 0-1.534.767.767 0 0 1 0 1.534zm11.503 0h-9.203v-1.534h9.203V27.5zm0-9.203a6.135 6.135 0 1 1 6.135 6.136 6.142 6.142 0 0 1-6.135-6.136zm1.534 7.67h9.202v9.202h-9.202v-9.203zm8.435 10.736v7.668h-3.067v-7.669h3.067zm-4.6 10.736h-4.602v-1.534h4.601v1.534zm0-3.068h-3.069v-7.669h3.068v7.67zm6.134 3.068h-4.601v-1.534h4.601v1.534zm1.534-9.203a.767.767 0 1 1 0-1.533.767.767 0 0 1 0 1.533zm.767-3.067h-1.534v-9.203h1.534v9.203zm1.533-10.736h-4.62a7.663 7.663 0 0 0-6.116-13.651V9.095H49v15.338z" fill="#fff"/><path d="M39.797 13.696a4.606 4.606 0 0 0-4.601 4.601.767.767 0 1 0 1.533 0 3.067 3.067 0 0 1 3.068-3.067.767.767 0 0 0 0-1.534zM38.263 27.5H36.73v1.534h1.533V27.5zm4.601 0h-1.533v1.534h1.533V27.5zm-6.134 2.3v4.602h6.135V29.8h-6.136zm4.6 3.068h-3.067v-1.534h3.068v1.534zm-29.908-2.301a2.3 2.3 0 0 1-2.3-2.3.767.767 0 0 0-1.534 0 2.3 2.3 0 0 1-2.3 2.3.767.767 0 0 0 0 1.534 2.3 2.3 0 0 1 2.3 2.3.767.767 0 0 0 1.534 0 2.3 2.3 0 0 1 2.3-2.3.767.767 0 0 0 0-1.534zm-3.067 1.534a3.85 3.85 0 0 0-.767-.767 3.85 3.85 0 0 0 .767-.767c.218.291.476.55.767.767a3.85 3.85 0 0 0-.767.767zm8.435 5.369h-1.533v1.533h1.534V37.47zm0-3.068h-1.533v1.534h1.534v-1.534zm-1.533 1.534h-1.534v1.533h1.534v-1.533zm3.067 0H16.79v1.533h1.534v-1.533zm1.534 8.435H4.521v1.534h15.337v-1.534zm11.503 0H24.46v1.534h6.902v-1.534zm19.172 0h-2.3v1.534h2.3v-1.534z" fill="#fff"/></svg>