<svg xmlns="http://www.w3.org/2000/svg" viewBox="0 0 163.8 30"><path d="M23.6 18.3l6.5-5.3c.9-.8.4-2.2-.8-2.3l-8.3-.5c-.5 0-.9-.3-1.1-.8l-3.1-7.8c-.4-1.1-2-1.1-2.4 0l-3.1 7.8c-.2.5-.6.8-1.1.8l-8.4.5C.6 10.8.1 12.2 1 13l6.6 5.2c.4.3.6.9.4 1.3l-2.1 8.1c-.3 1.1.9 2.1 2 1.4l7-4.5c.4-.3 1-.3 1.4 0l7.1 4.5c1 .6 2.2-.3 2-1.4l-2.1-8.1c-.2-.4-.1-.9.3-1.2zm33.2 0l6.5-5.3c.9-.8.4-2.2-.8-2.3l-8.3-.5c-.5 0-.9-.3-1.1-.8L50 1.6c-.4-1.1-2-1.1-2.4 0l-3.1 7.8c-.2.5-.6.8-1.1.8l-8.4.5c-1.2.1-1.7 1.5-.8 2.3l6.6 5.2c.4.3.6.9.4 1.3l-2.1 8.1c-.3 1.1.9 2.1 2 1.4l7-4.5c.4-.3 1-.3 1.4 0l7.1 4.5c1 .6 2.2-.3 2-1.4l-2.1-8.1c-.2-.4-.1-.9.3-1.2zm33.1 0l6.5-5.3c.9-.8.4-2.2-.8-2.3l-8.3-.5c-.5 0-.9-.3-1.1-.8l-3.1-7.8c-.4-1.1-2-1.1-2.4 0l-3.1 7.8c-.2.5-.6.8-1.1.8l-8.4.5c-1.2.1-1.7 1.5-.8 2.3l6.6 5.2c.4.3.6.9.4 1.3l-2.1 8.1c-.3 1.1.9 2.1 2 1.4l7-4.5c.4-.3 1-.3 1.4 0l7.1 4.5c1 .6 2.2-.3 2-1.4l-2.1-8.1c-.2-.4-.1-.9.3-1.2zm66.3 0l6.5-5.3c.9-.8.4-2.2-.8-2.3l-8.3-.5c-.5 0-.9-.3-1.1-.8l-3.1-7.8c-.4-1.1-2-1.1-2.4 0l-3.1 7.8c-.2.5-.6.8-1.1.8l-8.4.5c-1.2.1-1.7 1.5-.8 2.3l6.6 5.2c.4.3.6.9.4 1.3l-2.1 8.1c-.3 1.1.9 2.1 2 1.4l7-4.5c.4-.3 1-.3 1.4 0L156 29c1 .6 2.2-.3 2-1.4l-2.1-8.1c-.2-.4-.1-.9.3-1.2zm-33.1 0l6.5-5.3c.9-.8.4-2.2-.8-2.3l-8.3-.5c-.5 0-.9-.3-1.1-.8l-3.1-7.8c-.4-1.1-2-1.1-2.4 0l-3.1 7.8c-.2.5-.6.8-1.1.8l-8.4.5c-1.2.1-1.7 1.5-.8 2.3l6.6 5.2c.4.3.6.9.4 1.3l-2.1 8.1c-.3 1.1.9 2.1 2 1.4l7-4.5c.4-.3 1-.3 1.4 0l7.1 4.5c1 .6 2.2-.3 2-1.4l-2.1-8.1c-.2-.4-.1-.9.3-1.2z"/></svg>